<svg id="Layer_1" data-name="Layer 1" xmlns="http://www.w3.org/2000/svg" width="64" height="64" viewBox="0 0 64 64">
  <defs>
    <style>
      .cls-1 {
        fill: #ed5481;
      }

      .cls-2 {
        fill: #e84d88;
      }

      .cls-3 {
        fill: #22284a;
      }

      .cls-4 {
        fill: #1d2549;
      }

      .cls-5 {
        fill: none;
        stroke: #fff;
        stroke-miterlimit: 10;
      }
    </style>
  </defs>
  <g>
    <path class="cls-1" d="M35.27,21.18a5,5,0,0,1,1.43-.48c6.79,0,13.57,0,20.54,0v8.18H43.53V58.37L43.32,62H35.26V21.18Z" transform="translate(0 0)"/>
    <path class="cls-2" d="M27.17,43.12H7.82c-.18-.38-.51-.77-.51-1.16,0-13.41,0-26.83,0-40.43h8v33H29.52c-.24,3.07-.46,5.84-.68,8.6Z" transform="translate(0 0)"/>
    <path class="cls-1" d="M45,43c.55-1.1.85-1.74,1.18-2.36,3.46-6.45,3.46-6.45,11.11-5.78a9,9,0,0,1,.16,1.28c0,2.14,0,4.27,0,6.86Z" transform="translate(0 0)"/>
    <path class="cls-1" d="M21.36,28.82v-8H33.87c-1.41,2.51-2.66,4.84-4,7.09a2,2,0,0,1-1.46.86C26.09,28.87,23.79,28.82,21.36,28.82Z" transform="translate(0 0)"/>
    <path class="cls-3" d="M35.27,21.18v0Z" transform="translate(0 0)"/>
    <path class="cls-4" d="M27.17,43.12h0Z" transform="translate(0 0)"/>
    <path class="cls-4" d="M7.82,43.11h0Z" transform="translate(0 0)"/>
  </g>
  <rect class="cls-5" x="0.5" y="0.5" width="63" height="63" rx="9.21"/>
</svg>
